<mxfile host="app.diagrams.net" agent="Mozilla/5.0 (Windows NT 10.0; Win64; x64) AppleWebKit/537.36 (KHTML, like Gecko) Chrome/133.0.0.0 Safari/537.36 Edg/133.0.0.0" version="26.0.14">
  <diagram name="第 1 页" id="XyVI9S_oVfnOOk0DaSvn">
    <mxGraphModel dx="1703" dy="716" grid="0" gridSize="10" guides="1" tooltips="1" connect="1" arrows="1" fold="1" page="0" pageScale="1" pageWidth="827" pageHeight="1169" math="0" shadow="0">
      <root>
        <mxCell id="0" />
        <mxCell id="1" parent="0" />
        <mxCell id="0Wx0PgzZWX51oEMOdkHR-4" value="" style="rounded=0;whiteSpace=wrap;html=1;" vertex="1" parent="1">
          <mxGeometry x="-4" y="43" width="699" height="123" as="geometry" />
        </mxCell>
        <mxCell id="0Wx0PgzZWX51oEMOdkHR-5" value="&lt;font style=&quot;font-size: 18px;&quot;&gt;&lt;b style=&quot;&quot;&gt;浏览器&lt;/b&gt;&lt;/font&gt;" style="rounded=0;whiteSpace=wrap;html=1;" vertex="1" parent="1">
          <mxGeometry x="11" y="59" width="33" height="89" as="geometry" />
        </mxCell>
        <mxCell id="0Wx0PgzZWX51oEMOdkHR-6" value="&lt;font style=&quot;font-size: 24px;&quot;&gt;&lt;b&gt;Vue应用&lt;/b&gt;&lt;/font&gt;" style="rounded=0;whiteSpace=wrap;html=1;" vertex="1" parent="1">
          <mxGeometry x="62" y="58" width="286" height="89" as="geometry" />
        </mxCell>
        <mxCell id="0Wx0PgzZWX51oEMOdkHR-7" value="&lt;font style=&quot;font-size: 18px;&quot;&gt;&lt;b style=&quot;&quot;&gt;外部系统&lt;/b&gt;&lt;/font&gt;" style="rounded=0;whiteSpace=wrap;html=1;" vertex="1" parent="1">
          <mxGeometry x="365" y="57" width="31" height="90.5" as="geometry" />
        </mxCell>
        <mxCell id="0Wx0PgzZWX51oEMOdkHR-8" value="&lt;font style=&quot;font-size: 24px;&quot;&gt;&lt;b&gt;HttpClient&lt;/b&gt;&lt;/font&gt;" style="rounded=0;whiteSpace=wrap;html=1;" vertex="1" parent="1">
          <mxGeometry x="406" y="60.5" width="268" height="86.5" as="geometry" />
        </mxCell>
        <mxCell id="0Wx0PgzZWX51oEMOdkHR-9" value="&lt;font style=&quot;font-size: 23px;&quot;&gt;&lt;b&gt;Http&lt;/b&gt;&lt;/font&gt;" style="rounded=0;whiteSpace=wrap;html=1;" vertex="1" parent="1">
          <mxGeometry x="-4" y="221" width="619" height="48" as="geometry" />
        </mxCell>
        <mxCell id="0Wx0PgzZWX51oEMOdkHR-10" value="" style="rounded=0;whiteSpace=wrap;html=1;" vertex="1" parent="1">
          <mxGeometry x="-4" y="375" width="514" height="391" as="geometry" />
        </mxCell>
        <mxCell id="0Wx0PgzZWX51oEMOdkHR-11" value="" style="rounded=0;whiteSpace=wrap;html=1;" vertex="1" parent="1">
          <mxGeometry x="-4" y="836" width="709" height="103" as="geometry" />
        </mxCell>
        <mxCell id="0Wx0PgzZWX51oEMOdkHR-14" value="" style="endArrow=classic;html=1;rounded=0;" edge="1" parent="1">
          <mxGeometry width="50" height="50" relative="1" as="geometry">
            <mxPoint x="347" y="176" as="sourcePoint" />
            <mxPoint x="347" y="216" as="targetPoint" />
          </mxGeometry>
        </mxCell>
        <mxCell id="0Wx0PgzZWX51oEMOdkHR-15" value="" style="endArrow=none;html=1;rounded=0;startFill=1;strokeColor=default;startArrow=classic;" edge="1" parent="1">
          <mxGeometry width="50" height="50" relative="1" as="geometry">
            <mxPoint x="384" y="175" as="sourcePoint" />
            <mxPoint x="384" y="215" as="targetPoint" />
          </mxGeometry>
        </mxCell>
        <mxCell id="0Wx0PgzZWX51oEMOdkHR-16" value="&lt;font style=&quot;font-size: 37px;&quot;&gt;&lt;b&gt;权限管理&lt;/b&gt;&lt;/font&gt;" style="rounded=0;whiteSpace=wrap;html=1;" vertex="1" parent="1">
          <mxGeometry x="640" y="221" width="53" height="510" as="geometry" />
        </mxCell>
        <mxCell id="0Wx0PgzZWX51oEMOdkHR-17" value="&lt;font style=&quot;font-size: 33px;&quot;&gt;&lt;b&gt;日志记录&lt;/b&gt;&lt;/font&gt;" style="rounded=0;whiteSpace=wrap;html=1;" vertex="1" parent="1">
          <mxGeometry x="555" y="286" width="56" height="407" as="geometry" />
        </mxCell>
        <mxCell id="0Wx0PgzZWX51oEMOdkHR-18" value="" style="endArrow=classic;html=1;rounded=0;" edge="1" parent="1">
          <mxGeometry width="50" height="50" relative="1" as="geometry">
            <mxPoint x="234" y="325" as="sourcePoint" />
            <mxPoint x="234" y="365" as="targetPoint" />
          </mxGeometry>
        </mxCell>
        <mxCell id="0Wx0PgzZWX51oEMOdkHR-19" value="" style="endArrow=none;html=1;rounded=0;startFill=1;strokeColor=default;startArrow=classic;" edge="1" parent="1">
          <mxGeometry width="50" height="50" relative="1" as="geometry">
            <mxPoint x="263" y="324" as="sourcePoint" />
            <mxPoint x="263" y="364" as="targetPoint" />
          </mxGeometry>
        </mxCell>
        <mxCell id="0Wx0PgzZWX51oEMOdkHR-20" value="&lt;font style=&quot;font-size: 22px;&quot;&gt;请求&lt;/font&gt;" style="text;html=1;align=center;verticalAlign=middle;resizable=0;points=[];autosize=1;strokeColor=none;fillColor=none;" vertex="1" parent="1">
          <mxGeometry x="277" y="178" width="62" height="38" as="geometry" />
        </mxCell>
        <mxCell id="0Wx0PgzZWX51oEMOdkHR-21" value="&lt;span style=&quot;font-size: 22px;&quot;&gt;响应&lt;/span&gt;" style="text;html=1;align=center;verticalAlign=middle;resizable=0;points=[];autosize=1;strokeColor=none;fillColor=none;" vertex="1" parent="1">
          <mxGeometry x="405" y="178" width="62" height="38" as="geometry" />
        </mxCell>
        <mxCell id="0Wx0PgzZWX51oEMOdkHR-22" value="&lt;font style=&quot;font-size: 24px;&quot;&gt;员工管理&lt;/font&gt;" style="rounded=0;whiteSpace=wrap;html=1;fontStyle=1" vertex="1" parent="1">
          <mxGeometry x="50" y="404" width="174" height="67" as="geometry" />
        </mxCell>
        <mxCell id="0Wx0PgzZWX51oEMOdkHR-23" value="&lt;span style=&quot;font-size: 24px;&quot;&gt;&lt;b&gt;供应商信息&lt;/b&gt;&lt;/span&gt;" style="rounded=0;whiteSpace=wrap;html=1;" vertex="1" parent="1">
          <mxGeometry x="288" y="404" width="174" height="67" as="geometry" />
        </mxCell>
        <mxCell id="0Wx0PgzZWX51oEMOdkHR-24" value="&lt;span style=&quot;font-size: 24px;&quot;&gt;物品管理&lt;/span&gt;" style="rounded=0;whiteSpace=wrap;html=1;fontStyle=1" vertex="1" parent="1">
          <mxGeometry x="50" y="490" width="174" height="67" as="geometry" />
        </mxCell>
        <mxCell id="0Wx0PgzZWX51oEMOdkHR-25" value="&lt;span style=&quot;font-size: 24px;&quot;&gt;&lt;b&gt;数据展示&lt;/b&gt;&lt;/span&gt;" style="rounded=0;whiteSpace=wrap;html=1;" vertex="1" parent="1">
          <mxGeometry x="288" y="490" width="174" height="67" as="geometry" />
        </mxCell>
        <mxCell id="0Wx0PgzZWX51oEMOdkHR-26" value="&lt;span style=&quot;font-size: 24px;&quot;&gt;日志审计&lt;/span&gt;" style="rounded=0;whiteSpace=wrap;html=1;fontStyle=1" vertex="1" parent="1">
          <mxGeometry x="50" y="586" width="174" height="67" as="geometry" />
        </mxCell>
        <mxCell id="0Wx0PgzZWX51oEMOdkHR-27" value="&lt;span style=&quot;font-size: 24px;&quot;&gt;信息共享&lt;/span&gt;" style="rounded=0;whiteSpace=wrap;html=1;fontStyle=1" vertex="1" parent="1">
          <mxGeometry x="288" y="586" width="174" height="67" as="geometry" />
        </mxCell>
        <mxCell id="0Wx0PgzZWX51oEMOdkHR-28" value="&lt;span style=&quot;font-size: 24px;&quot;&gt;品类管理&lt;/span&gt;" style="rounded=0;whiteSpace=wrap;html=1;fontStyle=1" vertex="1" parent="1">
          <mxGeometry x="50" y="674" width="174" height="67" as="geometry" />
        </mxCell>
        <mxCell id="0Wx0PgzZWX51oEMOdkHR-29" value="&lt;span style=&quot;font-size: 24px;&quot;&gt;.......&lt;/span&gt;" style="rounded=0;whiteSpace=wrap;html=1;fontStyle=1" vertex="1" parent="1">
          <mxGeometry x="288" y="674" width="174" height="67" as="geometry" />
        </mxCell>
        <mxCell id="0Wx0PgzZWX51oEMOdkHR-34" value="" style="endArrow=classic;html=1;rounded=0;" edge="1" parent="1">
          <mxGeometry width="50" height="50" relative="1" as="geometry">
            <mxPoint x="372.23" y="778" as="sourcePoint" />
            <mxPoint x="372.23" y="818" as="targetPoint" />
          </mxGeometry>
        </mxCell>
      </root>
    </mxGraphModel>
  </diagram>
</mxfile>
